<svg width="744" height="715" viewBox="0 0 744 715" fill="none" xmlns="http://www.w3.org/2000/svg">
<rect x="108" y="67" width="510" height="100" fill="white"/>
<path d="M362.222 258.721C361.757 258.9 361.243 258.9 360.778 258.721L112.992 162.865C110.926 162.066 111.498 159 113.713 159L609.287 159C611.502 159 612.074 162.066 610.008 162.865L362.222 258.721Z" fill="url(#paint0_linear_1603_1156)"/>
<circle cx="654" cy="356" r="90" fill="white"/>
<g filter="url(#filter0_d_1603_1156)">
<path d="M60.7147 412.268C34.048 385.601 20.7147 372.268 20.7147 355.7C20.7147 339.131 34.048 325.798 60.7147 299.131L301.131 58.7147C327.798 32.0481 341.131 18.7147 357.7 18.7147C374.268 18.7147 387.601 32.0481 414.268 58.7147L654.684 299.131C681.351 325.798 694.684 339.131 694.684 355.7C694.684 372.268 681.351 385.601 654.684 412.268L414.268 652.684C387.601 679.351 374.268 692.684 357.7 692.684C341.131 692.684 327.798 679.351 301.131 652.684L60.7147 412.268Z" fill="white"/>
</g>
<circle cx="153.5" cy="514.5" r="27.5" fill="url(#paint1_linear_1603_1156)"/>
<circle cx="653.5" cy="355.5" r="82.5" fill="url(#paint2_linear_1603_1156)"/>
<circle cx="113.5" cy="571.5" r="12.5" fill="url(#paint3_linear_1603_1156)"/>
<path d="M113 79C113 76.2386 115.239 74 118 74H608C610.761 74 613 76.2386 613 79V159H113V79Z" fill="url(#paint4_linear_1603_1156)"/>
<defs>
<filter id="filter0_d_1603_1156" x="0.714661" y="0.714722" width="713.97" height="713.97" filterUnits="userSpaceOnUse" color-interpolation-filters="sRGB">
<feFlood flood-opacity="0" result="BackgroundImageFix"/>
<feColorMatrix in="SourceAlpha" type="matrix" values="0 0 0 0 0 0 0 0 0 0 0 0 0 0 0 0 0 0 127 0" result="hardAlpha"/>
<feMorphology radius="10" operator="dilate" in="SourceAlpha" result="effect1_dropShadow_1603_1156"/>
<feOffset dy="2"/>
<feGaussianBlur stdDeviation="5"/>
<feComposite in2="hardAlpha" operator="out"/>
<feColorMatrix type="matrix" values="0 0 0 0 0.411765 0 0 0 0 0.482353 0 0 0 0 1 0 0 0 0.1 0"/>
<feBlend mode="normal" in2="BackgroundImageFix" result="effect1_dropShadow_1603_1156"/>
<feBlend mode="normal" in="SourceGraphic" in2="effect1_dropShadow_1603_1156" result="shape"/>
</filter>
<linearGradient id="paint0_linear_1603_1156" x1="361.5" y1="80.5" x2="361.5" y2="464.5" gradientUnits="userSpaceOnUse">
<stop stop-color="#E10000"/>
<stop offset="0.360797" stop-color="#EC5E5E" stop-opacity="0.630555"/>
<stop offset="0.936126" stop-color="white" stop-opacity="0"/>
</linearGradient>
<linearGradient id="paint1_linear_1603_1156" x1="178.5" y1="494.5" x2="128" y2="540.5" gradientUnits="userSpaceOnUse">
<stop stop-color="#0239FD"/>
<stop offset="1" stop-color="#A259FF"/>
</linearGradient>
<linearGradient id="paint2_linear_1603_1156" x1="611.5" y1="356" x2="838.5" y2="356" gradientUnits="userSpaceOnUse">
<stop stop-color="#E10000"/>
<stop offset="1" stop-color="#FF64D4" stop-opacity="0"/>
</linearGradient>
<linearGradient id="paint3_linear_1603_1156" x1="113.5" y1="559" x2="113.5" y2="584" gradientUnits="userSpaceOnUse">
<stop stop-color="#A259FF"/>
<stop offset="1" stop-color="#697BFF"/>
</linearGradient>
<linearGradient id="paint4_linear_1603_1156" x1="363" y1="94.5" x2="363" y2="243.5" gradientUnits="userSpaceOnUse">
<stop stop-color="#E10000"/>
<stop offset="1" stop-color="#F24E1E" stop-opacity="0"/>
</linearGradient>
</defs>
</svg>
