<svg width="744" height="715" viewBox="0 0 744 715" fill="none" xmlns="http://www.w3.org/2000/svg">
<rect x="108" y="67" width="510" height="100" fill="white"/>
<path d="M362.222 258.721C361.757 258.9 361.243 258.9 360.778 258.721L112.992 162.865C110.926 162.066 111.498 159 113.713 159L609.287 159C611.502 159 612.074 162.066 610.008 162.865L362.222 258.721Z" fill="url(#paint0_linear_1609_1155)"/>
<circle cx="654" cy="356" r="90" fill="white"/>
<g filter="url(#filter0_d_1609_1155)">
<path d="M60.7147 412.268C34.048 385.601 20.7147 372.268 20.7147 355.7C20.7147 339.131 34.048 325.798 60.7147 299.131L301.131 58.7147C327.798 32.0481 341.131 18.7147 357.7 18.7147C374.268 18.7147 387.601 32.0481 414.268 58.7147L654.684 299.131C681.351 325.798 694.684 339.131 694.684 355.7C694.684 372.268 681.351 385.601 654.684 412.268L414.268 652.684C387.601 679.351 374.268 692.684 357.7 692.684C341.131 692.684 327.798 679.351 301.131 652.684L60.7147 412.268Z" fill="white"/>
</g>
<path d="M248.368 350.84H258.28C266.568 350.84 272.355 352.8 275.64 356.72C278.963 360.64 280.624 365.307 280.624 370.72C280.624 374.491 279.915 377.981 278.496 381.192C277.077 384.365 274.725 386.96 271.44 388.976C268.192 390.992 263.917 392 258.616 392H248.368V350.84ZM259.288 386.456C264.44 386.456 268.173 385 270.488 382.088C272.84 379.139 274.016 375.443 274.016 371C274.016 366.669 272.84 363.141 270.488 360.416C268.136 357.691 264.403 356.328 259.288 356.328H254.64V386.456H259.288ZM298.515 392.56C295.864 392.56 293.512 391.963 291.459 390.768C289.405 389.573 287.819 387.949 286.699 385.896C285.579 383.843 285.019 381.565 285.019 379.064C285.019 376.6 285.56 374.341 286.643 372.288C287.763 370.235 289.349 368.611 291.403 367.416C293.456 366.221 295.827 365.624 298.515 365.624C301.203 365.624 303.555 366.221 305.571 367.416C307.624 368.611 309.192 370.235 310.275 372.288C311.395 374.341 311.955 376.6 311.955 379.064C311.955 381.565 311.395 383.843 310.275 385.896C309.155 387.949 307.568 389.573 305.515 390.768C303.499 391.963 301.165 392.56 298.515 392.56ZM298.683 387.632C300.848 387.632 302.547 386.829 303.779 385.224C305.048 383.619 305.683 381.603 305.683 379.176C305.683 376.749 305.011 374.715 303.667 373.072C302.323 371.392 300.549 370.552 298.347 370.552C296.219 370.552 294.501 371.373 293.195 373.016C291.925 374.659 291.291 376.712 291.291 379.176C291.291 381.565 291.981 383.581 293.363 385.224C294.744 386.829 296.517 387.632 298.683 387.632ZM318.414 366.296H324.462V370.944C325.283 369.189 326.478 367.864 328.046 366.968C329.651 366.072 331.48 365.624 333.534 365.624C338.126 365.661 340.944 367.248 341.99 370.384C342.811 368.928 344.043 367.771 345.686 366.912C347.328 366.053 349.064 365.624 350.894 365.624C353.582 365.624 355.616 366.147 356.998 367.192C358.379 368.2 359.294 369.656 359.742 371.56C360.227 373.427 360.47 375.947 360.47 379.12V392H354.366V379.064C354.366 376.04 354.048 373.875 353.414 372.568C352.816 371.261 351.64 370.608 349.886 370.608C347.534 370.608 345.742 371.411 344.51 373.016C343.315 374.584 342.717 376.656 342.717 379.232V392H336.67V378.168C336.67 376.189 336.595 374.715 336.446 373.744C336.296 372.773 335.886 372.008 335.214 371.448C334.542 370.888 333.459 370.608 331.966 370.608C330.659 370.608 329.427 371 328.27 371.784C327.15 372.568 326.235 373.632 325.526 374.976C324.854 376.283 324.518 377.701 324.518 379.232V392H318.414V366.296ZM379.547 392.56C377.232 392.56 375.086 392.019 373.107 390.936C371.166 389.816 369.598 388.248 368.403 386.232C367.246 384.179 366.667 381.789 366.667 379.064C366.667 376.376 367.171 374.024 368.179 372.008C369.224 369.992 370.699 368.424 372.603 367.304C374.507 366.184 376.747 365.624 379.323 365.624C380.816 365.624 382.216 365.885 383.523 366.408C384.83 366.931 385.931 367.584 386.827 368.368C387.723 369.115 388.32 369.861 388.619 370.608L388.731 366.296H394.499V392H388.787L388.675 387.464C388.04 388.808 386.883 390.003 385.203 391.048C383.523 392.056 381.638 392.56 379.547 392.56ZM380.555 387.52C382.683 387.52 384.475 386.792 385.931 385.336C387.387 383.843 388.115 381.901 388.115 379.512V379.12C388.115 377.515 387.779 376.077 387.107 374.808C386.435 373.539 385.52 372.549 384.363 371.84C383.206 371.131 381.936 370.776 380.555 370.776C378.166 370.776 376.318 371.56 375.011 373.128C373.704 374.659 373.051 376.656 373.051 379.12C373.051 381.621 373.686 383.656 374.955 385.224C376.262 386.755 378.128 387.52 380.555 387.52ZM403.08 366.296H409.352V392H403.08V366.296ZM406.16 361.48C405.003 361.48 404.032 361.088 403.248 360.304C402.464 359.52 402.072 358.549 402.072 357.392C402.072 356.347 402.464 355.451 403.248 354.704C404.032 353.957 405.003 353.584 406.16 353.584C407.28 353.584 408.232 353.957 409.016 354.704C409.8 355.451 410.192 356.347 410.192 357.392C410.192 358.549 409.8 359.52 409.016 360.304C408.27 361.088 407.318 361.48 406.16 361.48ZM417.726 366.296H423.662L423.718 371C424.427 369.432 425.547 368.144 427.078 367.136C428.609 366.128 430.401 365.624 432.454 365.624C435.105 365.624 437.139 366.184 438.558 367.304C439.977 368.387 440.929 369.917 441.414 371.896C441.899 373.875 442.142 376.451 442.142 379.624V392H436.094V379.792C436.094 376.544 435.777 374.211 435.142 372.792C434.507 371.336 433.201 370.608 431.222 370.608C430.102 370.608 428.963 370.963 427.806 371.672C426.649 372.344 425.678 373.333 424.894 374.64C424.147 375.947 423.774 377.477 423.774 379.232V392H417.726V366.296ZM458.785 392.56C456.993 392.56 455.126 392.336 453.185 391.888C451.281 391.403 449.918 390.843 449.097 390.208L451.113 385.448C453.353 387.016 455.91 387.8 458.785 387.8C461.66 387.8 463.097 386.96 463.097 385.28C463.097 384.533 462.798 383.955 462.201 383.544C461.604 383.133 460.54 382.648 459.009 382.088L456.881 381.304C454.641 380.408 452.868 379.344 451.561 378.112C450.254 376.843 449.601 375.181 449.601 373.128C449.601 370.776 450.516 368.947 452.345 367.64C454.212 366.296 456.694 365.624 459.793 365.624C461.324 365.624 462.817 365.792 464.273 366.128C465.766 366.464 466.905 366.893 467.689 367.416L465.505 372.232C465.02 371.747 464.236 371.336 463.153 371C462.108 370.627 460.932 370.44 459.625 370.44C456.974 370.44 455.649 371.243 455.649 372.848C455.649 373.744 456.004 374.435 456.713 374.92C457.422 375.368 458.58 375.872 460.185 376.432C460.334 376.469 460.913 376.675 461.921 377.048C464.31 377.981 466.084 379.045 467.241 380.24C468.398 381.435 468.977 382.965 468.977 384.832C468.977 387.371 468.006 389.293 466.065 390.6C464.161 391.907 461.734 392.56 458.785 392.56Z" fill="black"/>
<circle cx="153.5" cy="514.5" r="27.5" fill="url(#paint1_linear_1609_1155)"/>
<circle cx="653.5" cy="355.5" r="82.5" fill="url(#paint2_linear_1609_1155)"/>
<path d="M294.8 210.6L295.2 207.5C295.2 204.433 294 202.467 291.6 201.6C289.733 201 288.3 200.7 287.3 200.7H287.2C285.2 200.7 283.467 201.033 282 201.7C280.533 202.3 279.467 203.067 278.8 204C277.4 205.933 276.6 207.967 276.4 210.1C276.4 212.633 277.533 214.833 279.8 216.7C282.067 218.5 284.8 220.1 288 221.5C291.267 222.833 294.5 224.3 297.7 225.9C300.967 227.5 303.733 229.8 306 232.8C308.267 235.8 309.4 239.4 309.4 243.6C309.4 251.8 306.8 257.933 301.6 262C296.467 266.067 290.6 268.1 284 268.1C277.467 268.1 272.033 266.633 267.7 263.7C263.433 260.7 261.3 256.7 261.3 251.7V251.6C261.3 249.133 261.667 247 262.4 245.2C263.2 243.333 264.133 241.967 265.2 241.1C267.4 239.3 269.4 238.333 271.2 238.2L272.4 238.1C274.267 238.1 275.967 238.567 277.5 239.5C279.033 240.367 279.8 241.6 279.8 243.2C279.8 244 279.367 244.667 278.5 245.2C277.633 245.733 276.867 246.533 276.2 247.6C275.6 248.667 275.267 249.567 275.2 250.3L275 251.4C275 255.467 276.867 258.167 280.6 259.5C281.933 259.967 283 260.2 283.8 260.2C287.467 260.2 290.4 259.1 292.6 256.9C294.867 254.7 296 251.9 296 248.5C296 244.433 294.267 241.133 290.8 238.6C288.2 236.733 285.367 235.167 282.3 233.9C279.3 232.633 277.267 231.733 276.2 231.2C275.133 230.667 274 230.033 272.8 229.3C271.6 228.567 270.267 227.533 268.8 226.2C265.6 223.4 264 219.633 264 214.9C264 210.1 265.3 206.067 267.9 202.8C272.567 196.867 279.567 193.9 288.9 193.9C293.833 193.9 298 194.867 301.4 196.8C304.8 198.667 306.5 201.267 306.5 204.6C306.5 207 305.8 209 304.4 210.6C303.067 212.2 301.333 213 299.2 213C298.2 213 297.2 212.8 296.2 212.4C295.267 212 294.8 211.4 294.8 210.6ZM347.377 236L347.177 248.8C347.177 257.667 348.143 263 350.077 264.8C350.343 265.067 350.477 265.367 350.477 265.7C350.477 266.7 348.31 267.2 343.977 267.2C339.71 267.2 337.443 265.933 337.177 263.4C337.11 262.8 337.077 261.567 337.077 259.7L337.477 243.7C337.477 243.233 337.21 243 336.677 243C333.477 243 330.477 243.9 327.677 245.7C324.877 247.5 323.477 249.8 323.477 252.6C323.477 254.067 323.877 255.3 324.677 256.3C325.477 257.3 326.443 257.8 327.577 257.8C328.777 257.8 329.743 257.567 330.477 257.1C331.277 256.633 331.743 256.367 331.877 256.3C333.01 256.433 333.577 257.633 333.577 259.9C333.577 262.1 332.543 263.9 330.477 265.3C328.41 266.633 326.243 267.3 323.977 267.3C321.71 267.3 319.743 266.9 318.077 266.1C316.477 265.3 315.31 264.4 314.577 263.4C313.843 262.4 313.243 261.267 312.777 260C312.31 258.467 312.077 257.133 312.077 256C312.077 251.333 313.543 247.6 316.477 244.8C319.41 242 323.177 240 327.777 238.8C333.843 237.6 337.01 236.5 337.277 235.5C337.477 234.767 337.577 233.533 337.577 231.8C337.577 228.267 335.777 226.5 332.177 226.5C330.643 226.5 329.277 227 328.077 228C326.877 228.933 326.277 230.133 326.277 231.6L326.877 234C326.743 235.133 325.543 235.8 323.277 236L322.177 236.1C320.177 236.1 318.577 235.6 317.377 234.6C316.243 233.6 315.677 232.267 315.677 230.6C315.677 229.533 316.01 228.367 316.677 227.1C317.41 225.767 318.31 224.7 319.377 223.9C320.443 223.1 322.077 222.4 324.277 221.8C326.543 221.133 328.71 220.8 330.777 220.8C332.843 220.8 334.443 220.867 335.577 221C336.71 221.133 338.243 221.467 340.177 222C342.177 222.467 343.81 223.4 345.077 224.8C346.41 226.2 347.11 227.7 347.177 229.3C347.31 230.833 347.377 233.067 347.377 236ZM365.953 208.8L365.353 245.5C365.353 256.967 365.72 263.833 366.453 266.1C366.653 266.5 366.753 266.9 366.753 267.3C366.753 268.1 365.786 268.5 363.853 268.5C361.92 268.5 359.753 268 357.353 267C355.02 266.067 353.853 264.833 353.853 263.3C355.186 253.967 355.853 241.5 355.853 225.9L355.453 210.6C355.32 208.733 354.92 207.133 354.253 205.8C353.653 204.467 353.053 203.6 352.453 203.2L351.653 202.7C351.186 202.433 350.953 202.133 350.953 201.8C350.953 200.867 352.386 199.733 355.253 198.4C358.186 197 361.02 196.3 363.753 196.3C364.82 196.3 365.42 196.667 365.553 197.4C365.82 199.133 365.953 202.933 365.953 208.8ZM382.266 240.6L382.366 243.1C382.366 243.5 382.632 243.7 383.166 243.7C385.299 243.5 387.166 242.967 388.766 242.1C390.366 241.167 391.566 240.133 392.366 239C393.966 236.533 394.832 234.4 394.966 232.6L395.066 231.4C395.066 227.8 393.632 226 390.766 226C388.632 226 386.899 226.933 385.566 228.8C383.366 231.733 382.266 235.667 382.266 240.6ZM404.066 253.9C404.066 256.433 403.532 258.667 402.466 260.6C401.466 262.467 400.299 263.867 398.966 264.8C397.699 265.667 396.199 266.367 394.466 266.9C392.266 267.567 390.166 267.9 388.166 267.9C382.566 267.9 378.432 265.8 375.766 261.6C373.099 257.4 371.766 252.067 371.766 245.6C371.766 239.067 373.399 233.267 376.666 228.2C379.999 223.133 384.966 220.6 391.566 220.6C397.566 220.6 401.632 222.7 403.766 226.9C404.632 228.5 405.066 230.033 405.066 231.5C405.066 232.9 404.999 234.033 404.866 234.9C404.732 235.7 404.266 236.933 403.466 238.6C402.666 240.267 401.599 241.767 400.266 243.1C398.932 244.433 396.832 245.7 393.966 246.9C391.099 248.1 387.732 248.9 383.866 249.3C383.332 249.3 383.066 249.533 383.066 250C383.066 250.6 383.266 251.5 383.666 252.7C384.132 253.833 384.632 254.8 385.166 255.6C386.632 257.467 388.799 258.4 391.666 258.4C394.532 258.4 396.966 257.467 398.966 255.6C400.032 254.6 400.899 253.367 401.566 251.9C401.832 251.367 402.166 251.1 402.566 251.1C403.032 251.1 403.399 251.467 403.666 252.2C403.932 252.933 404.066 253.5 404.066 253.9ZM417.682 257.5L420.082 257.4C421.682 257.4 422.749 257.767 423.282 258.5C423.882 259.167 424.182 260.4 424.182 262.2C424.182 263.933 423.782 265.2 422.982 266C422.249 266.867 420.749 267.3 418.482 267.3C416.282 267.3 414.715 266.867 413.782 266C412.915 265.133 412.482 263.233 412.482 260.3C412.482 257.367 412.915 255.9 413.782 255.9L414.882 256.7C415.615 257.233 416.549 257.5 417.682 257.5ZM411.782 200.5C411.715 200.167 411.682 199.667 411.682 199C411.682 198.333 412.215 197.667 413.282 197C414.415 196.333 415.715 195.867 417.182 195.6C419.715 195.067 421.749 194.8 423.282 194.8C424.815 194.8 425.582 195.467 425.582 196.8L425.382 198C422.849 208.533 421.582 223.367 421.582 242.5C421.582 244.633 421.615 246.033 421.682 246.7C421.749 247.3 421.749 247.7 421.682 247.9C421.615 248.1 421.249 248.4 420.582 248.8C419.982 249.133 419.149 249.3 418.082 249.3C415.749 249.3 414.549 248.533 414.482 247C414.482 223.333 413.582 207.833 411.782 200.5ZM441.705 257.5L444.105 257.4C445.705 257.4 446.772 257.767 447.305 258.5C447.905 259.167 448.205 260.4 448.205 262.2C448.205 263.933 447.805 265.2 447.005 266C446.272 266.867 444.772 267.3 442.505 267.3C440.305 267.3 438.739 266.867 437.805 266C436.939 265.133 436.505 263.233 436.505 260.3C436.505 257.367 436.939 255.9 437.805 255.9L438.905 256.7C439.639 257.233 440.572 257.5 441.705 257.5ZM435.805 200.5C435.739 200.167 435.705 199.667 435.705 199C435.705 198.333 436.239 197.667 437.305 197C438.439 196.333 439.739 195.867 441.205 195.6C443.739 195.067 445.772 194.8 447.305 194.8C448.839 194.8 449.605 195.467 449.605 196.8L449.405 198C446.872 208.533 445.605 223.367 445.605 242.5C445.605 244.633 445.639 246.033 445.705 246.7C445.772 247.3 445.772 247.7 445.705 247.9C445.639 248.1 445.272 248.4 444.605 248.8C444.005 249.133 443.172 249.3 442.105 249.3C439.772 249.3 438.572 248.533 438.505 247C438.505 223.333 437.605 207.833 435.805 200.5Z" fill="#189CFB"/>
<path d="M291.05 500.65L295.2 500.75C296.667 500.75 297.817 500.733 298.65 500.7C298.75 497.967 298.8 495.567 298.8 493.5L298.75 488.6C298.75 488.167 298.633 487.95 298.4 487.95L297.8 488.25C296.767 489.383 295.667 490.867 294.5 492.7C293.367 494.533 292.483 496.1 291.85 497.4L290.9 499.3C290.767 499.6 290.7 499.9 290.7 500.2C290.7 500.5 290.817 500.65 291.05 500.65ZM298.4 505.85L294.1 505.8L285.1 505.9C284.367 505.9 284 505.567 284 504.9L284.1 504.35C286.233 499.083 289.817 493.1 294.85 486.4C296.45 484.233 297.933 482.4 299.3 480.9L299.95 480.25C300.817 479.35 302.1 478.9 303.8 478.9C304.7 478.9 305.15 479.167 305.15 479.7C304.617 484.4 304.35 489.183 304.35 494.05V500.4C304.783 500.367 305.25 500.333 305.75 500.3L306.9 500.2C307.133 500.2 307.283 500.2 307.35 500.2C307.617 500.2 307.75 500.283 307.75 500.45C307.75 501.017 307.467 501.933 306.9 503.2C306.333 504.467 305.75 505.233 305.15 505.5L304.45 505.65C304.517 509.417 304.683 511.95 304.95 513.25C304.95 514.117 304.283 514.75 302.95 515.15C301.65 515.55 300.4 515.75 299.2 515.75C298.033 515.75 297.45 515.483 297.45 514.95C297.45 514.883 297.55 514.217 297.75 512.95C297.95 511.683 298.167 509.317 298.4 505.85ZM326.82 497.5C326.82 487.533 325.053 482.55 321.52 482.55C318.02 482.55 316.27 487.533 316.27 497.5C316.27 507.433 318.02 512.4 321.52 512.4C325.053 512.4 326.82 507.433 326.82 497.5ZM329.22 512.95C328.387 513.85 327.32 514.55 326.02 515.05C324.72 515.55 323.137 515.8 321.27 515.8C319.437 515.8 317.77 515.45 316.27 514.75C314.77 514.017 313.603 513.117 312.77 512.05C311.97 510.95 311.32 509.583 310.82 507.95C310.32 506.317 310.003 504.767 309.87 503.3C309.737 501.833 309.67 500.117 309.67 498.15C309.67 496.15 309.753 494.317 309.92 492.65C310.087 490.983 310.42 489.283 310.92 487.55C311.42 485.783 312.087 484.317 312.92 483.15C313.787 481.983 314.953 481.033 316.42 480.3C317.887 479.533 319.553 479.15 321.42 479.15C323.32 479.15 324.953 479.433 326.32 480C327.687 480.567 328.787 481.383 329.62 482.45C330.453 483.483 331.137 484.567 331.67 485.7C332.203 486.833 332.587 488.167 332.82 489.7C333.22 492.3 333.42 494.633 333.42 496.7C333.42 498.733 333.353 500.417 333.22 501.75C333.12 503.083 332.92 504.5 332.62 506C332.353 507.467 331.92 508.767 331.32 509.9C330.753 511 330.053 512.017 329.22 512.95ZM359.028 507C359.028 502.3 358.144 499.95 356.378 499.95C354.611 499.95 353.728 502.3 353.728 507C353.728 511.667 354.611 514 356.378 514C358.144 514 359.028 511.667 359.028 507ZM360.778 513.95C359.878 515.15 358.411 515.75 356.378 515.75C354.344 515.75 352.811 515.133 351.778 513.9C350.778 512.667 350.278 510.417 350.278 507.15C350.278 503.883 350.794 501.567 351.828 500.2C352.861 498.833 354.378 498.15 356.378 498.15C358.411 498.15 359.928 498.833 360.928 500.2C361.961 501.567 362.478 503.817 362.478 506.95C362.478 510.05 361.911 512.383 360.778 513.95ZM340.328 515.15C340.061 515.783 339.428 516.1 338.428 516.1C337.461 516.1 336.978 515.917 336.978 515.55L337.128 515.15L358.828 479.85C358.928 479.383 359.494 479.15 360.528 479.15C361.561 479.15 362.078 479.3 362.078 479.6L362.028 479.85L340.328 515.15ZM345.178 488.45C345.178 483.75 344.294 481.4 342.528 481.4C340.761 481.4 339.878 483.75 339.878 488.45C339.878 493.117 340.761 495.45 342.528 495.45C344.294 495.45 345.178 493.117 345.178 488.45ZM346.928 495.4C346.028 496.6 344.561 497.2 342.528 497.2C340.494 497.2 338.961 496.583 337.928 495.35C336.928 494.117 336.428 491.867 336.428 488.6C336.428 485.333 336.944 483.017 337.978 481.65C339.011 480.283 340.528 479.6 342.528 479.6C344.561 479.6 346.078 480.283 347.078 481.65C348.111 483.017 348.628 485.267 348.628 488.4C348.628 491.5 348.061 493.833 346.928 495.4ZM379.365 496.15C378.498 496.183 377.865 496.217 377.465 496.25C377.098 496.25 376.915 496.15 376.915 495.95C376.915 495.75 377.015 495.55 377.215 495.35C379.348 493.383 382.948 492.4 388.015 492.4C389.748 492.4 391.115 492.55 392.115 492.85L392.615 493C393.015 493.167 393.215 493.35 393.215 493.55C393.215 493.717 393.098 493.85 392.865 493.95C391.965 494.217 391.098 494.65 390.265 495.25C389.432 495.817 389.015 496.217 389.015 496.45L389.315 496.8C390.382 497.4 391.198 498.35 391.765 499.65C392.365 500.95 392.698 502.1 392.765 503.1L392.865 504.65C392.865 507.95 391.948 510.667 390.115 512.8C388.282 514.933 385.782 516 382.615 516C381.015 516 379.632 515.717 378.465 515.15C377.298 514.583 376.432 513.95 375.865 513.25C375.332 512.517 374.898 511.7 374.565 510.8C374.165 509.567 373.965 508.3 373.965 507C373.965 505.667 374.182 504.333 374.615 503C375.082 501.667 375.598 500.683 376.165 500.05C376.765 499.417 377.432 498.9 378.165 498.5C379.098 498 379.848 497.75 380.415 497.75C380.982 497.75 381.265 497.867 381.265 498.1L380.965 498.6C380.232 499.467 379.698 500.6 379.365 502C379.065 503.4 378.915 504.65 378.915 505.75C378.915 506.817 379.048 507.883 379.315 508.95C379.582 510.017 379.882 510.817 380.215 511.35C380.548 511.85 380.932 512.233 381.365 512.5C381.998 512.9 382.665 513.1 383.365 513.1C384.065 513.1 384.748 512.833 385.415 512.3C386.082 511.733 386.565 511 386.865 510.1C387.465 508.433 387.765 506.717 387.765 504.95C387.765 502.15 387.048 499.983 385.615 498.45C384.215 496.917 382.132 496.15 379.365 496.15ZM401.961 502.5L402.211 512.5C402.211 514.6 401.928 516.45 401.361 518.05C400.828 519.683 400.161 520.9 399.361 521.7C397.728 523.4 396.294 524.367 395.061 524.6L394.211 524.8C393.711 524.8 393.461 524.65 393.461 524.35L393.711 523.6C396.144 520.233 397.361 511.967 397.361 498.8C397.361 497.6 397.344 496.7 397.311 496.1C396.611 496.1 395.911 496.15 395.211 496.25H395.161C394.794 496.25 394.611 496.067 394.611 495.7L394.761 493.8C394.794 493.5 395.028 493.35 395.461 493.35H397.261V490L397.361 485.25C397.361 485.017 397.394 484.767 397.461 484.5C397.561 484.2 397.928 483.767 398.561 483.2C399.194 482.6 400.128 482.067 401.361 481.6C402.594 481.1 403.644 480.85 404.511 480.85C405.411 480.85 405.861 481.117 405.861 481.65C405.861 481.85 405.711 482.017 405.411 482.15C404.444 482.45 403.644 483.317 403.011 484.75C402.411 486.15 402.111 488.55 402.111 491.95V493.35C403.811 493.283 404.928 493.2 405.461 493.1C405.694 493.1 405.811 493.3 405.811 493.7C405.811 494.1 405.628 494.6 405.261 495.2C404.928 495.767 404.494 496.067 403.961 496.1C403.461 496.1 402.828 496.083 402.061 496.05C401.994 498.583 401.961 500.733 401.961 502.5ZM413.729 502.5L413.979 512.5C413.979 514.6 413.695 516.45 413.129 518.05C412.595 519.683 411.929 520.9 411.129 521.7C409.495 523.4 408.062 524.367 406.829 524.6L405.979 524.8C405.479 524.8 405.229 524.65 405.229 524.35L405.479 523.6C407.912 520.233 409.129 511.967 409.129 498.8C409.129 497.6 409.112 496.7 409.079 496.1C408.379 496.1 407.679 496.15 406.979 496.25H406.929C406.562 496.25 406.379 496.067 406.379 495.7L406.529 493.8C406.562 493.5 406.795 493.35 407.229 493.35H409.029V490L409.129 485.25C409.129 485.017 409.162 484.767 409.229 484.5C409.329 484.2 409.695 483.767 410.329 483.2C410.962 482.6 411.895 482.067 413.129 481.6C414.362 481.1 415.412 480.85 416.279 480.85C417.179 480.85 417.629 481.117 417.629 481.65C417.629 481.85 417.479 482.017 417.179 482.15C416.212 482.45 415.412 483.317 414.779 484.75C414.179 486.15 413.879 488.55 413.879 491.95V493.35C415.579 493.283 416.695 493.2 417.229 493.1C417.462 493.1 417.579 493.3 417.579 493.7C417.579 494.1 417.395 494.6 417.029 495.2C416.695 495.767 416.262 496.067 415.729 496.1C415.229 496.1 414.595 496.083 413.829 496.05C413.762 498.583 413.729 500.733 413.729 502.5Z" fill="#FF0707"/>
<circle cx="113.5" cy="571.5" r="12.5" fill="url(#paint3_linear_1609_1155)"/>
<path d="M113 79C113 76.2386 115.239 74 118 74H608C610.761 74 613 76.2386 613 79V159H113V79Z" fill="url(#paint4_linear_1609_1155)"/>
<path d="M169.4 125.5L169.7 123.2C171 123 171.883 122.617 172.35 122.05C172.85 121.45 173.1 120.433 173.1 119L173.15 98C173.15 96.9333 173.033 96.2167 172.8 95.85C172.567 95.4833 172.067 95.3 171.3 95.3C171 95.3 170.633 95.3167 170.2 95.35C169.8 95.3833 169.6 95.4 169.6 95.4L169.5 95.2L169.85 93C169.85 93 170.183 93.0167 170.85 93.05C171.517 93.0833 172.283 93.1167 173.15 93.15C174.05 93.15 174.817 93.15 175.45 93.15C175.983 93.15 176.55 93.1333 177.15 93.1C177.783 93.0333 178.367 92.9833 178.9 92.95C179.467 92.8833 179.917 92.8333 180.25 92.8C180.617 92.7333 180.8 92.7 180.8 92.7L180.6 94.95C179.5 95.0833 178.733 95.3 178.3 95.6C177.867 95.9 177.617 96.3667 177.55 97C177.483 97.6 177.4 98.4667 177.3 99.6C177.167 101.667 177.05 103.917 176.95 106.35C176.85 108.75 176.783 111.067 176.75 113.3C176.717 115.5 176.7 117.367 176.7 118.9C176.7 120.033 176.783 120.883 176.95 121.45C177.15 121.983 177.55 122.333 178.15 122.5C178.783 122.667 179.717 122.75 180.95 122.75C182.417 122.75 183.6 122.667 184.5 122.5C185.4 122.333 186.117 122 186.65 121.5C187.217 121 187.667 120.283 188 119.35C188.333 118.417 188.633 117.183 188.9 115.65L191.1 115.4L191.25 115.65C191.25 115.65 191.167 116.1 191 117C190.833 117.9 190.633 119.067 190.4 120.5C190.2 121.933 190 123.483 189.8 125.15L189.55 125.45C189.55 125.45 189.083 125.417 188.15 125.35C187.217 125.317 186.033 125.267 184.6 125.2C183.167 125.167 181.683 125.117 180.15 125.05C178.65 125.017 177.3 125 176.1 125C174.867 125 173.733 125.033 172.7 125.1C171.7 125.2 170.9 125.283 170.3 125.35C169.7 125.45 169.4 125.5 169.4 125.5ZM193.542 125.6L193.742 123.55C194.742 123.283 195.458 122.9 195.892 122.4C196.325 121.867 196.542 121.167 196.542 120.3V107.6C196.542 106.667 196.392 105.983 196.092 105.55C195.792 105.117 195.325 104.9 194.692 104.9C194.425 104.9 194.142 104.933 193.842 105C193.575 105.067 193.442 105.1 193.442 105.1L193.642 103.25C194.475 103.117 195.308 102.967 196.142 102.8C197.008 102.633 197.792 102.483 198.492 102.35C199.192 102.183 199.758 102.05 200.192 101.95C200.625 101.85 200.842 101.8 200.842 101.8L201.092 102.4C200.958 102.733 200.808 103.483 200.642 104.65C200.508 105.783 200.392 107.183 200.292 108.85C200.192 110.483 200.108 112.283 200.042 114.25C199.975 116.183 199.942 118.133 199.942 120.1C199.942 121.067 200.075 121.783 200.342 122.25C200.608 122.683 201.058 122.9 201.692 122.9C201.992 122.9 202.358 122.883 202.792 122.85C203.225 122.817 203.442 122.8 203.442 122.8L203.542 123L203.142 125.15C203.142 125.15 202.992 125.133 202.692 125.1C202.425 125.1 202.058 125.083 201.592 125.05C201.158 125.05 200.675 125.033 200.142 125C199.642 125 199.158 125 198.692 125C197.992 125 197.242 125.05 196.442 125.15C195.642 125.25 194.958 125.35 194.392 125.45C193.825 125.55 193.542 125.6 193.542 125.6ZM197.942 95.9C197.108 95.9 196.492 95.6333 196.092 95.1C195.692 94.5667 195.492 93.9833 195.492 93.35C195.492 92.55 195.775 91.8667 196.342 91.3C196.908 90.7 197.608 90.4 198.442 90.4C199.242 90.4 199.842 90.6667 200.242 91.2C200.675 91.7 200.892 92.2833 200.892 92.95C200.892 93.75 200.608 94.45 200.042 95.05C199.508 95.6167 198.808 95.9 197.942 95.9ZM221.703 123.55C222.703 123.283 223.42 122.9 223.853 122.4C224.286 121.867 224.503 121.167 224.503 120.3L224.703 110.4C224.703 108.733 224.336 107.45 223.603 106.55C222.903 105.65 221.886 105.2 220.553 105.2C219.753 105.2 218.936 105.367 218.103 105.7C217.27 106.033 216.52 106.4 215.853 106.8C215.22 107.2 214.736 107.533 214.403 107.8C214.37 108.667 214.32 109.7 214.253 110.9C214.22 112.067 214.17 113.267 214.103 114.5C214.07 115.733 214.036 116.85 214.003 117.85C213.97 118.85 213.953 119.6 213.953 120.1C213.953 121.133 214.086 121.867 214.353 122.3C214.653 122.7 215.12 122.9 215.753 122.9C216.053 122.9 216.42 122.883 216.853 122.85C217.286 122.817 217.503 122.8 217.503 122.8L217.603 123L217.153 125.15C217.153 125.15 216.903 125.133 216.403 125.1C215.903 125.067 215.303 125.033 214.603 125C213.903 125 213.236 125 212.603 125C211.903 125 211.17 125 210.403 125C209.636 125.033 208.986 125.05 208.453 125.05C207.92 125.083 207.653 125.1 207.653 125.1L207.953 123.05C208.92 122.95 209.586 122.7 209.953 122.3C210.353 121.9 210.553 121.233 210.553 120.3V108.1C210.553 106.967 210.37 106.183 210.003 105.75C209.636 105.283 209.003 105.05 208.103 105.05H207.553L207.403 104.85L207.553 103.2C208.72 103 209.836 102.8 210.903 102.6C211.97 102.367 212.836 102.167 213.503 102C214.203 101.833 214.553 101.75 214.553 101.75L214.853 102.15C214.853 102.15 214.77 102.483 214.603 103.15C214.47 103.817 214.37 104.583 214.303 105.45L214.403 105.6C214.703 105.4 215.17 105.1 215.803 104.7C216.436 104.267 217.12 103.833 217.853 103.4C218.62 102.933 219.353 102.55 220.053 102.25C220.753 101.95 221.32 101.8 221.753 101.8C223.353 101.8 224.703 102.15 225.803 102.85C226.936 103.517 227.72 104.483 228.153 105.75C228.353 105.583 228.753 105.3 229.353 104.9C229.986 104.467 230.703 104.017 231.503 103.55C232.303 103.083 233.07 102.683 233.803 102.35C234.57 101.983 235.203 101.8 235.703 101.8C237.803 101.8 239.47 102.383 240.703 103.55C241.936 104.717 242.553 106.283 242.553 108.25C242.553 108.683 242.52 109.4 242.453 110.4C242.386 111.4 242.303 112.517 242.203 113.75C242.103 114.983 242.02 116.167 241.953 117.3C241.886 118.433 241.853 119.367 241.853 120.1C241.853 121.133 241.986 121.867 242.253 122.3C242.553 122.7 243.02 122.9 243.653 122.9C243.953 122.9 244.32 122.883 244.753 122.85C245.186 122.817 245.403 122.8 245.403 122.8L245.503 123L245.053 125.15C245.053 125.15 244.903 125.133 244.603 125.1C244.303 125.1 243.92 125.083 243.453 125.05C242.986 125.05 242.486 125.033 241.953 125C241.453 125 240.97 125 240.503 125C239.97 125 239.42 125.017 238.853 125.05C238.286 125.083 237.753 125.117 237.253 125.15C236.753 125.183 236.336 125.217 236.003 125.25C235.703 125.283 235.553 125.3 235.553 125.3L235.803 123.25C236.77 123.083 237.453 122.783 237.853 122.35C238.253 121.917 238.453 121.233 238.453 120.3L238.653 110.4C238.653 108.733 238.286 107.45 237.553 106.55C236.853 105.65 235.836 105.2 234.503 105.2C233.703 105.2 232.903 105.35 232.103 105.65C231.336 105.95 230.62 106.3 229.953 106.7C229.32 107.1 228.82 107.433 228.453 107.7L227.903 120.1C227.903 121.067 228.036 121.783 228.303 122.25C228.57 122.683 229.02 122.9 229.653 122.9C229.953 122.9 230.32 122.883 230.753 122.85C231.186 122.817 231.403 122.8 231.403 122.8L231.503 123L231.103 125.15C231.103 125.15 230.953 125.133 230.653 125.1C230.386 125.1 230.02 125.083 229.553 125.05C229.12 125.05 228.636 125.033 228.103 125C227.603 125 227.12 125 226.653 125C226.12 125 225.553 125.033 224.953 125.1C224.386 125.167 223.836 125.233 223.303 125.3C222.77 125.367 222.336 125.433 222.003 125.5C221.67 125.567 221.503 125.6 221.503 125.6L221.703 123.55ZM249.255 125.6L249.455 123.55C250.455 123.283 251.171 122.9 251.605 122.4C252.038 121.867 252.255 121.167 252.255 120.3V107.6C252.255 106.667 252.105 105.983 251.805 105.55C251.505 105.117 251.038 104.9 250.405 104.9C250.138 104.9 249.855 104.933 249.555 105C249.288 105.067 249.155 105.1 249.155 105.1L249.355 103.25C250.188 103.117 251.021 102.967 251.855 102.8C252.721 102.633 253.505 102.483 254.205 102.35C254.905 102.183 255.471 102.05 255.905 101.95C256.338 101.85 256.555 101.8 256.555 101.8L256.805 102.4C256.671 102.733 256.521 103.483 256.355 104.65C256.221 105.783 256.105 107.183 256.005 108.85C255.905 110.483 255.821 112.283 255.755 114.25C255.688 116.183 255.655 118.133 255.655 120.1C255.655 121.067 255.788 121.783 256.055 122.25C256.321 122.683 256.771 122.9 257.405 122.9C257.705 122.9 258.071 122.883 258.505 122.85C258.938 122.817 259.155 122.8 259.155 122.8L259.255 123L258.855 125.15C258.855 125.15 258.705 125.133 258.405 125.1C258.138 125.1 257.771 125.083 257.305 125.05C256.871 125.05 256.388 125.033 255.855 125C255.355 125 254.871 125 254.405 125C253.705 125 252.955 125.05 252.155 125.15C251.355 125.25 250.671 125.35 250.105 125.45C249.538 125.55 249.255 125.6 249.255 125.6ZM253.655 95.9C252.821 95.9 252.205 95.6333 251.805 95.1C251.405 94.5667 251.205 93.9833 251.205 93.35C251.205 92.55 251.488 91.8667 252.055 91.3C252.621 90.7 253.321 90.4 254.155 90.4C254.955 90.4 255.555 90.6667 255.955 91.2C256.388 91.7 256.605 92.2833 256.605 92.95C256.605 93.75 256.321 94.45 255.755 95.05C255.221 95.6167 254.521 95.9 253.655 95.9ZM271.466 125.6C269.199 125.6 267.599 125.15 266.666 124.25C265.733 123.317 265.266 121.75 265.266 119.55V107.25C265.266 106.35 265.066 105.717 264.666 105.35C264.266 104.983 263.516 104.783 262.416 104.75L262.216 104.45L262.466 102.95C263.266 102.55 264.033 102.1 264.766 101.6C265.533 101.067 266.199 100.567 266.766 100.1C267.366 99.6 267.833 99.2 268.166 98.9C268.499 98.5667 268.666 98.4 268.666 98.4L269.666 98.8C269.666 98.8 269.616 99.1167 269.516 99.75C269.449 100.383 269.366 101.317 269.266 102.55L276.616 102.4L276.766 102.55L276.316 105.2L269.066 105.05C268.966 106.617 268.883 108.45 268.816 110.55C268.749 112.65 268.716 114.983 268.716 117.55C268.716 119.25 268.999 120.45 269.566 121.15C270.166 121.85 271.183 122.2 272.616 122.2C273.449 122.2 274.216 122.05 274.916 121.75C275.649 121.45 276.016 121.3 276.016 121.3L276.516 122.6C276.516 122.6 276.316 122.75 275.916 123.05C275.516 123.35 275.016 123.7 274.416 124.1C273.849 124.5 273.283 124.85 272.716 125.15C272.183 125.45 271.766 125.6 271.466 125.6ZM289.97 125.6C287.87 125.6 286.037 125.133 284.47 124.2C282.903 123.267 281.67 121.983 280.77 120.35C279.903 118.683 279.47 116.75 279.47 114.55C279.47 112.85 279.753 111.233 280.32 109.7C280.92 108.167 281.737 106.817 282.77 105.65C283.803 104.45 284.97 103.517 286.27 102.85C287.603 102.15 289.02 101.8 290.52 101.8C295.487 101.8 297.97 104.217 297.97 109.05C297.97 109.483 297.937 109.933 297.87 110.4C297.803 110.867 297.737 111.233 297.67 111.5L297.02 112.1H283.22C283.187 115.067 283.72 117.417 284.82 119.15C285.953 120.85 287.537 121.85 289.57 122.15C291.603 122.417 294.003 121.917 296.77 120.65L297.07 120.75L297.62 122.2C296.953 122.667 296.153 123.167 295.22 123.7C294.32 124.233 293.403 124.683 292.47 125.05C291.537 125.417 290.703 125.6 289.97 125.6ZM283.42 110.25L292.47 109.8C292.97 109.733 293.303 109.617 293.47 109.45C293.637 109.283 293.72 108.95 293.72 108.45C293.72 107.117 293.353 106.1 292.62 105.4C291.92 104.7 290.903 104.35 289.57 104.35C288.037 104.35 286.703 104.883 285.57 105.95C284.437 106.983 283.72 108.417 283.42 110.25ZM322.582 125.6C319.982 125.6 318.499 124.417 318.132 122.05L317.782 121.9C316.049 123.067 314.665 123.95 313.632 124.55C312.599 125.15 311.899 125.45 311.532 125.45C309.632 125.45 307.949 125.017 306.482 124.15C305.049 123.25 303.915 122.017 303.082 120.45C302.282 118.85 301.882 117 301.882 114.9C301.882 112.5 302.432 110.317 303.532 108.35C304.665 106.35 306.182 104.767 308.082 103.6C309.982 102.4 312.065 101.8 314.332 101.8C314.799 101.8 315.315 101.817 315.882 101.85C316.449 101.883 317.082 101.933 317.782 102V93.7C317.782 92.7667 317.632 92.0833 317.332 91.65C317.032 91.2167 316.565 91 315.932 91C315.665 91 315.382 91.0333 315.082 91.1C314.815 91.1667 314.682 91.2 314.682 91.2L314.882 89.35C315.749 89.25 316.615 89.1167 317.482 88.95C318.349 88.7833 319.149 88.6167 319.882 88.45C320.615 88.2833 321.199 88.15 321.632 88.05C322.065 87.95 322.282 87.9 322.282 87.9L322.582 88.55C322.449 88.7833 322.315 89.5333 322.182 90.8C322.049 92.0667 321.915 93.7333 321.782 95.8C321.682 97.8667 321.582 100.2 321.482 102.8C321.382 105.367 321.299 108.1 321.232 111C321.199 113.9 321.182 116.817 321.182 119.75C321.182 120.483 321.365 121.05 321.732 121.45C322.099 121.85 322.599 122.05 323.232 122.05C323.765 122.05 324.249 121.95 324.682 121.75C325.149 121.517 325.515 121.3 325.782 121.1C326.082 120.9 326.232 120.8 326.232 120.8L326.932 121.6C326.932 121.6 326.815 121.767 326.582 122.1C326.349 122.433 326.032 122.85 325.632 123.35C325.232 123.817 324.765 124.267 324.232 124.7C323.732 125.133 323.182 125.433 322.582 125.6ZM312.332 122.2C312.932 122.2 313.549 122.067 314.182 121.8C314.815 121.533 315.399 121.233 315.932 120.9C316.499 120.533 316.949 120.217 317.282 119.95C317.615 119.683 317.782 119.55 317.782 119.55V105.85C317.782 105.85 317.349 105.667 316.482 105.3C315.615 104.9 314.432 104.7 312.932 104.7C310.699 104.7 308.932 105.467 307.632 107C306.365 108.5 305.732 110.567 305.732 113.2C305.732 114.867 306.015 116.383 306.582 117.75C307.182 119.117 307.982 120.2 308.982 121C309.982 121.8 311.099 122.2 312.332 122.2ZM347.15 125.6C344.883 125.6 343.283 125.15 342.35 124.25C341.416 123.317 340.95 121.75 340.95 119.55V107.25C340.95 106.35 340.75 105.717 340.35 105.35C339.95 104.983 339.2 104.783 338.1 104.75L337.9 104.45L338.15 102.95C338.95 102.55 339.716 102.1 340.45 101.6C341.216 101.067 341.883 100.567 342.45 100.1C343.05 99.6 343.516 99.2 343.85 98.9C344.183 98.5667 344.35 98.4 344.35 98.4L345.35 98.8C345.35 98.8 345.3 99.1167 345.2 99.75C345.133 100.383 345.05 101.317 344.95 102.55L352.3 102.4L352.45 102.55L352 105.2L344.75 105.05C344.65 106.617 344.566 108.45 344.5 110.55C344.433 112.65 344.4 114.983 344.4 117.55C344.4 119.25 344.683 120.45 345.25 121.15C345.85 121.85 346.866 122.2 348.3 122.2C349.133 122.2 349.9 122.05 350.6 121.75C351.333 121.45 351.7 121.3 351.7 121.3L352.2 122.6C352.2 122.6 352 122.75 351.6 123.05C351.2 123.35 350.7 123.7 350.1 124.1C349.533 124.5 348.966 124.85 348.4 125.15C347.866 125.45 347.45 125.6 347.15 125.6ZM355.554 125.6L355.754 123.55C356.754 123.283 357.47 122.9 357.904 122.4C358.337 121.867 358.554 121.167 358.554 120.3V107.6C358.554 106.667 358.404 105.983 358.104 105.55C357.804 105.117 357.337 104.9 356.704 104.9C356.437 104.9 356.154 104.933 355.854 105C355.587 105.067 355.454 105.1 355.454 105.1L355.654 103.25C356.487 103.117 357.32 102.967 358.154 102.8C359.02 102.633 359.804 102.483 360.504 102.35C361.204 102.183 361.77 102.05 362.204 101.95C362.637 101.85 362.854 101.8 362.854 101.8L363.104 102.4C362.97 102.733 362.82 103.483 362.654 104.65C362.52 105.783 362.404 107.183 362.304 108.85C362.204 110.483 362.12 112.283 362.054 114.25C361.987 116.183 361.954 118.133 361.954 120.1C361.954 121.067 362.087 121.783 362.354 122.25C362.62 122.683 363.07 122.9 363.704 122.9C364.004 122.9 364.37 122.883 364.804 122.85C365.237 122.817 365.454 122.8 365.454 122.8L365.554 123L365.154 125.15C365.154 125.15 365.004 125.133 364.704 125.1C364.437 125.1 364.07 125.083 363.604 125.05C363.17 125.05 362.687 125.033 362.154 125C361.654 125 361.17 125 360.704 125C360.004 125 359.254 125.05 358.454 125.15C357.654 125.25 356.97 125.35 356.404 125.45C355.837 125.55 355.554 125.6 355.554 125.6ZM359.954 95.9C359.12 95.9 358.504 95.6333 358.104 95.1C357.704 94.5667 357.504 93.9833 357.504 93.35C357.504 92.55 357.787 91.8667 358.354 91.3C358.92 90.7 359.62 90.4 360.454 90.4C361.254 90.4 361.854 90.6667 362.254 91.2C362.687 91.7 362.904 92.2833 362.904 92.95C362.904 93.75 362.62 94.45 362.054 95.05C361.52 95.6167 360.82 95.9 359.954 95.9ZM383.715 123.55C384.715 123.283 385.432 122.9 385.865 122.4C386.298 121.867 386.515 121.167 386.515 120.3L386.715 110.4C386.715 108.733 386.348 107.45 385.615 106.55C384.915 105.65 383.898 105.2 382.565 105.2C381.765 105.2 380.948 105.367 380.115 105.7C379.282 106.033 378.532 106.4 377.865 106.8C377.232 107.2 376.748 107.533 376.415 107.8C376.382 108.667 376.332 109.7 376.265 110.9C376.232 112.067 376.182 113.267 376.115 114.5C376.082 115.733 376.048 116.85 376.015 117.85C375.982 118.85 375.965 119.6 375.965 120.1C375.965 121.133 376.098 121.867 376.365 122.3C376.665 122.7 377.132 122.9 377.765 122.9C378.065 122.9 378.432 122.883 378.865 122.85C379.298 122.817 379.515 122.8 379.515 122.8L379.615 123L379.165 125.15C379.165 125.15 378.915 125.133 378.415 125.1C377.915 125.067 377.315 125.033 376.615 125C375.915 125 375.248 125 374.615 125C373.915 125 373.182 125 372.415 125C371.648 125.033 370.998 125.05 370.465 125.05C369.932 125.083 369.665 125.1 369.665 125.1L369.965 123.05C370.932 122.95 371.598 122.7 371.965 122.3C372.365 121.9 372.565 121.233 372.565 120.3V108.1C372.565 106.967 372.382 106.183 372.015 105.75C371.648 105.283 371.015 105.05 370.115 105.05H369.565L369.415 104.85L369.565 103.2C370.732 103 371.848 102.8 372.915 102.6C373.982 102.367 374.848 102.167 375.515 102C376.215 101.833 376.565 101.75 376.565 101.75L376.865 102.15C376.865 102.15 376.782 102.483 376.615 103.15C376.482 103.817 376.382 104.583 376.315 105.45L376.415 105.6C376.715 105.4 377.182 105.1 377.815 104.7C378.448 104.267 379.132 103.833 379.865 103.4C380.632 102.933 381.365 102.55 382.065 102.25C382.765 101.95 383.332 101.8 383.765 101.8C385.365 101.8 386.715 102.15 387.815 102.85C388.948 103.517 389.732 104.483 390.165 105.75C390.365 105.583 390.765 105.3 391.365 104.9C391.998 104.467 392.715 104.017 393.515 103.55C394.315 103.083 395.082 102.683 395.815 102.35C396.582 101.983 397.215 101.8 397.715 101.8C399.815 101.8 401.482 102.383 402.715 103.55C403.948 104.717 404.565 106.283 404.565 108.25C404.565 108.683 404.532 109.4 404.465 110.4C404.398 111.4 404.315 112.517 404.215 113.75C404.115 114.983 404.032 116.167 403.965 117.3C403.898 118.433 403.865 119.367 403.865 120.1C403.865 121.133 403.998 121.867 404.265 122.3C404.565 122.7 405.032 122.9 405.665 122.9C405.965 122.9 406.332 122.883 406.765 122.85C407.198 122.817 407.415 122.8 407.415 122.8L407.515 123L407.065 125.15C407.065 125.15 406.915 125.133 406.615 125.1C406.315 125.1 405.932 125.083 405.465 125.05C404.998 125.05 404.498 125.033 403.965 125C403.465 125 402.982 125 402.515 125C401.982 125 401.432 125.017 400.865 125.05C400.298 125.083 399.765 125.117 399.265 125.15C398.765 125.183 398.348 125.217 398.015 125.25C397.715 125.283 397.565 125.3 397.565 125.3L397.815 123.25C398.782 123.083 399.465 122.783 399.865 122.35C400.265 121.917 400.465 121.233 400.465 120.3L400.665 110.4C400.665 108.733 400.298 107.45 399.565 106.55C398.865 105.65 397.848 105.2 396.515 105.2C395.715 105.2 394.915 105.35 394.115 105.65C393.348 105.95 392.632 106.3 391.965 106.7C391.332 107.1 390.832 107.433 390.465 107.7L389.915 120.1C389.915 121.067 390.048 121.783 390.315 122.25C390.582 122.683 391.032 122.9 391.665 122.9C391.965 122.9 392.332 122.883 392.765 122.85C393.198 122.817 393.415 122.8 393.415 122.8L393.515 123L393.115 125.15C393.115 125.15 392.965 125.133 392.665 125.1C392.398 125.1 392.032 125.083 391.565 125.05C391.132 125.05 390.648 125.033 390.115 125C389.615 125 389.132 125 388.665 125C388.132 125 387.565 125.033 386.965 125.1C386.398 125.167 385.848 125.233 385.315 125.3C384.782 125.367 384.348 125.433 384.015 125.5C383.682 125.567 383.515 125.6 383.515 125.6L383.715 123.55ZM421.366 125.6C419.266 125.6 417.433 125.133 415.866 124.2C414.3 123.267 413.066 121.983 412.166 120.35C411.3 118.683 410.866 116.75 410.866 114.55C410.866 112.85 411.15 111.233 411.716 109.7C412.316 108.167 413.133 106.817 414.166 105.65C415.2 104.45 416.366 103.517 417.666 102.85C419 102.15 420.416 101.8 421.916 101.8C426.883 101.8 429.366 104.217 429.366 109.05C429.366 109.483 429.333 109.933 429.266 110.4C429.2 110.867 429.133 111.233 429.066 111.5L428.416 112.1H414.616C414.583 115.067 415.116 117.417 416.216 119.15C417.35 120.85 418.933 121.85 420.966 122.15C423 122.417 425.4 121.917 428.166 120.65L428.466 120.75L429.016 122.2C428.35 122.667 427.55 123.167 426.616 123.7C425.716 124.233 424.8 124.683 423.866 125.05C422.933 125.417 422.1 125.6 421.366 125.6ZM414.816 110.25L423.866 109.8C424.366 109.733 424.7 109.617 424.866 109.45C425.033 109.283 425.116 108.95 425.116 108.45C425.116 107.117 424.75 106.1 424.016 105.4C423.316 104.7 422.3 104.35 420.966 104.35C419.433 104.35 418.1 104.883 416.966 105.95C415.833 106.983 415.116 108.417 414.816 110.25ZM457.241 125.6C454.507 125.6 452.091 124.95 449.991 123.65C447.924 122.35 446.307 120.533 445.141 118.2C443.974 115.867 443.391 113.183 443.391 110.15C443.391 107.683 443.807 105.383 444.641 103.25C445.474 101.117 446.641 99.25 448.141 97.65C449.641 96.05 451.391 94.8 453.391 93.9C455.391 93 457.541 92.55 459.841 92.55C462.641 92.55 465.091 93.2 467.191 94.5C469.324 95.8 470.991 97.6167 472.191 99.95C473.391 102.25 473.991 104.917 473.991 107.95C473.991 110.45 473.557 112.767 472.691 114.9C471.857 117.033 470.674 118.9 469.141 120.5C467.641 122.1 465.874 123.35 463.841 124.25C461.807 125.15 459.607 125.6 457.241 125.6ZM458.791 123.05C460.924 123.05 462.791 122.5 464.391 121.4C465.991 120.3 467.241 118.783 468.141 116.85C469.074 114.883 469.541 112.617 469.541 110.05C469.541 107.183 469.057 104.667 468.091 102.5C467.124 100.333 465.791 98.6333 464.091 97.4C462.391 96.1667 460.407 95.55 458.141 95.55C456.074 95.55 454.257 96.1 452.691 97.2C451.124 98.3 449.891 99.8333 448.991 101.8C448.124 103.733 447.691 105.983 447.691 108.55C447.691 111.383 448.157 113.9 449.091 116.1C450.024 118.267 451.324 119.967 452.991 121.2C454.691 122.433 456.624 123.05 458.791 123.05ZM485.11 100.1C485.11 100.5 485.093 100.917 485.06 101.35C485.06 101.75 485.06 102.15 485.06 102.55H495.06L497.86 102.45L498.11 102.85L497.66 105.1L495.81 105H485.01C485.01 107.533 484.976 110.05 484.91 112.55C484.843 115.05 484.81 117.567 484.81 120.1C484.81 120.9 484.976 121.567 485.31 122.1C485.676 122.6 486.26 122.85 487.06 122.85C488.093 122.85 488.91 122.833 489.51 122.8C490.11 122.767 490.41 122.75 490.41 122.75L490.51 122.95L490.16 125.2C490.16 125.2 490.043 125.2 489.81 125.2C489.576 125.2 489.26 125.183 488.86 125.15C488.493 125.117 488.06 125.083 487.56 125.05C487.06 125.05 486.543 125.05 486.01 125.05C485.676 125.05 485.326 125.033 484.96 125C484.593 125 484.243 125 483.91 125C482.976 125 482.076 125 481.21 125C480.343 125.033 479.643 125.05 479.11 125.05C478.576 125.083 478.31 125.1 478.31 125.1L478.56 123.15C479.56 123.083 480.243 122.883 480.61 122.55C481.01 122.183 481.243 121.683 481.31 121.05C481.376 120.417 481.41 119.617 481.41 118.65V106.9C481.376 106.033 481.11 105.467 480.61 105.2C480.11 104.933 479.326 104.783 478.26 104.75L478.06 104.45L478.41 102.75L481.41 102.2C481.41 99.1333 481.993 96.6 483.16 94.6C484.326 92.5667 485.826 91.05 487.66 90.05C489.526 89.0167 491.51 88.5 493.61 88.5C495.143 88.5 496.51 88.7 497.71 89.1C498.91 89.5 499.86 89.9167 500.56 90.35C501.26 90.75 501.61 90.95 501.61 90.95L501.71 91.4C501.71 91.4 501.493 91.6833 501.06 92.25C500.626 92.7833 500.16 93.4667 499.66 94.3L499.11 94.45C499.11 94.45 498.793 94.2 498.16 93.7C497.56 93.2 496.71 92.7 495.61 92.2C494.543 91.7 493.326 91.45 491.96 91.45C489.493 91.45 487.743 92.2333 486.71 93.8C485.71 95.3667 485.176 97.4667 485.11 100.1ZM493.3 125.2L493.55 123.25C494.517 123.117 495.233 122.8 495.7 122.3C496.167 121.8 496.4 121.133 496.4 120.3V106.8C496.367 106 496.133 105.467 495.7 105.2C495.3 104.933 494.483 104.783 493.25 104.75L493.05 104.45L493.4 102.75L496.4 102.2V102C496.433 99.1 496.917 96.6 497.85 94.5C498.783 92.3667 500.1 90.7333 501.8 89.6C503.533 88.4667 505.567 87.9 507.9 87.9C509.6 87.9 510.967 88.0667 512 88.4C513.067 88.7 513.6 88.85 513.6 88.85L513.7 89.3C513.7 89.3 513.533 89.6167 513.2 90.25C512.867 90.85 512.517 91.6167 512.15 92.55L511.6 92.7C511.6 92.7 511.35 92.55 510.85 92.25C510.35 91.9167 509.667 91.6 508.8 91.3C507.933 91 506.95 90.85 505.85 90.85C504.583 90.85 503.533 91.1833 502.7 91.85C501.867 92.5167 501.233 93.5333 500.8 94.9C500.367 96.2667 500.133 98 500.1 100.1L500.05 102.55C501.25 102.55 502.367 102.533 503.4 102.5C504.467 102.467 505.317 102.45 505.95 102.45C506.617 102.417 506.95 102.4 506.95 102.4L507.1 102.55L506.6 105.2C506.6 105.2 506.283 105.183 505.65 105.15C505.05 105.117 504.25 105.1 503.25 105.1C502.25 105.067 501.167 105.05 500 105.05L499.8 120.1C499.8 121.933 500.65 122.85 502.35 122.85C503.217 122.85 503.933 122.833 504.5 122.8C505.067 122.767 505.35 122.75 505.35 122.75L505.45 122.95L505.1 125.1C505.1 125.1 504.867 125.083 504.4 125.05C503.967 125.05 503.4 125.05 502.7 125.05C502.033 125.05 501.35 125.033 500.65 125C499.983 125 499.4 125 498.9 125C498.2 125 497.517 125 496.85 125C496.183 125.033 495.583 125.067 495.05 125.1C494.517 125.133 494.083 125.15 493.75 125.15C493.45 125.183 493.3 125.2 493.3 125.2ZM518.925 125.6C516.825 125.6 514.992 125.133 513.425 124.2C511.858 123.267 510.625 121.983 509.725 120.35C508.858 118.683 508.425 116.75 508.425 114.55C508.425 112.85 508.708 111.233 509.275 109.7C509.875 108.167 510.692 106.817 511.725 105.65C512.758 104.45 513.925 103.517 515.225 102.85C516.558 102.15 517.975 101.8 519.475 101.8C524.442 101.8 526.925 104.217 526.925 109.05C526.925 109.483 526.892 109.933 526.825 110.4C526.758 110.867 526.692 111.233 526.625 111.5L525.975 112.1H512.175C512.142 115.067 512.675 117.417 513.775 119.15C514.908 120.85 516.492 121.85 518.525 122.15C520.558 122.417 522.958 121.917 525.725 120.65L526.025 120.75L526.575 122.2C525.908 122.667 525.108 123.167 524.175 123.7C523.275 124.233 522.358 124.683 521.425 125.05C520.492 125.417 519.658 125.6 518.925 125.6ZM512.375 110.25L521.425 109.8C521.925 109.733 522.258 109.617 522.425 109.45C522.592 109.283 522.675 108.95 522.675 108.45C522.675 107.117 522.308 106.1 521.575 105.4C520.875 104.7 519.858 104.35 518.525 104.35C516.992 104.35 515.658 104.883 514.525 105.95C513.392 106.983 512.675 108.417 512.375 110.25ZM531.987 123.2C532.987 123.1 533.654 122.783 533.987 122.25C534.32 121.683 534.487 120.617 534.487 119.05V108.05C534.487 106.95 534.337 106.167 534.037 105.7C533.737 105.233 533.254 105 532.587 105C532.32 105 532.07 105.033 531.837 105.1C531.637 105.133 531.537 105.15 531.537 105.15L531.287 104.8L531.437 103.25C532.47 103.05 533.504 102.833 534.537 102.6C535.57 102.367 536.437 102.167 537.137 102C537.837 101.833 538.187 101.75 538.187 101.75L538.537 102.05C538.537 102.05 538.487 102.317 538.387 102.85C538.32 103.383 538.254 104.05 538.187 104.85C538.12 105.617 538.087 106.4 538.087 107.2L538.287 107.35C539.32 105.783 540.504 104.5 541.837 103.5C543.17 102.5 544.337 102 545.337 102C545.904 102 546.304 102.033 546.537 102.1C546.77 102.167 546.887 102.2 546.887 102.2L547.037 102.4C547.037 102.4 547.004 102.633 546.937 103.1C546.87 103.533 546.787 104.117 546.687 104.85C546.587 105.55 546.487 106.317 546.387 107.15C546.32 107.983 546.27 108.783 546.237 109.55L544.287 109.7C544.287 108.333 544.204 107.433 544.037 107C543.87 106.533 543.504 106.3 542.937 106.3C542.204 106.3 541.42 106.6 540.587 107.2C539.754 107.8 538.987 108.633 538.287 109.7C538.287 109.7 538.27 110.017 538.237 110.65C538.204 111.25 538.17 112.017 538.137 112.95C538.104 113.883 538.07 114.85 538.037 115.85C538.004 116.817 537.97 117.683 537.937 118.45C537.904 119.183 537.887 119.667 537.887 119.9C537.887 121.033 538.054 121.8 538.387 122.2C538.72 122.6 539.354 122.8 540.287 122.8C540.654 122.8 541.104 122.783 541.637 122.75C542.204 122.717 542.487 122.7 542.487 122.7L542.537 122.9L542.087 125.1C542.087 125.1 541.92 125.083 541.587 125.05C541.254 125.05 540.82 125.05 540.287 125.05C539.754 125.05 539.187 125.033 538.587 125C538.02 125 537.487 125 536.987 125C536.02 125 535.137 125.017 534.337 125.05C533.537 125.083 532.904 125.117 532.437 125.15C531.97 125.183 531.737 125.2 531.737 125.2L531.987 123.2Z" fill="white"/>
<defs>
<filter id="filter0_d_1609_1155" x="0.714661" y="0.714722" width="713.97" height="713.97" filterUnits="userSpaceOnUse" color-interpolation-filters="sRGB">
<feFlood flood-opacity="0" result="BackgroundImageFix"/>
<feColorMatrix in="SourceAlpha" type="matrix" values="0 0 0 0 0 0 0 0 0 0 0 0 0 0 0 0 0 0 127 0" result="hardAlpha"/>
<feMorphology radius="10" operator="dilate" in="SourceAlpha" result="effect1_dropShadow_1609_1155"/>
<feOffset dy="2"/>
<feGaussianBlur stdDeviation="5"/>
<feComposite in2="hardAlpha" operator="out"/>
<feColorMatrix type="matrix" values="0 0 0 0 0.411765 0 0 0 0 0.482353 0 0 0 0 1 0 0 0 0.1 0"/>
<feBlend mode="normal" in2="BackgroundImageFix" result="effect1_dropShadow_1609_1155"/>
<feBlend mode="normal" in="SourceGraphic" in2="effect1_dropShadow_1609_1155" result="shape"/>
</filter>
<linearGradient id="paint0_linear_1609_1155" x1="361.5" y1="80.5" x2="361.5" y2="464.5" gradientUnits="userSpaceOnUse">
<stop stop-color="#E10000"/>
<stop offset="0.360797" stop-color="#EC5E5E" stop-opacity="0.630555"/>
<stop offset="0.936126" stop-color="white" stop-opacity="0"/>
</linearGradient>
<linearGradient id="paint1_linear_1609_1155" x1="178.5" y1="494.5" x2="128" y2="540.5" gradientUnits="userSpaceOnUse">
<stop stop-color="#0239FD"/>
<stop offset="1" stop-color="#A259FF"/>
</linearGradient>
<linearGradient id="paint2_linear_1609_1155" x1="611.5" y1="356" x2="838.5" y2="356" gradientUnits="userSpaceOnUse">
<stop stop-color="#E10000"/>
<stop offset="1" stop-color="#FF64D4" stop-opacity="0"/>
</linearGradient>
<linearGradient id="paint3_linear_1609_1155" x1="113.5" y1="559" x2="113.5" y2="584" gradientUnits="userSpaceOnUse">
<stop stop-color="#A259FF"/>
<stop offset="1" stop-color="#697BFF"/>
</linearGradient>
<linearGradient id="paint4_linear_1609_1155" x1="363" y1="94.5" x2="363" y2="243.5" gradientUnits="userSpaceOnUse">
<stop stop-color="#E10000"/>
<stop offset="1" stop-color="#F24E1E" stop-opacity="0"/>
</linearGradient>
</defs>
</svg>
